<mxfile host="app.diagrams.net" modified="2024-03-08T17:31:12.125Z" agent="Mozilla/5.0 (Windows NT 10.0; Win64; x64) AppleWebKit/537.36 (KHTML, like Gecko) Chrome/122.0.0.0 Safari/537.36 Edg/122.0.0.0" etag="zqS7F5c_Wd5u-4RAFLRo" version="24.0.2" type="device" pages="4">
  <diagram name="Reti in generale" id="sjuADVJ_S9V0UKONC88s">
    <mxGraphModel dx="1042" dy="535" grid="1" gridSize="10" guides="1" tooltips="1" connect="1" arrows="1" fold="1" page="1" pageScale="1" pageWidth="827" pageHeight="1169" math="0" shadow="0">
      <root>
        <mxCell id="0" />
        <mxCell id="1" parent="0" />
        <mxCell id="u1F8hFE0OjzJCRRmCUPQ-1" value="Reti" style="rounded=1;whiteSpace=wrap;html=1;" parent="1" vertex="1">
          <mxGeometry x="295" y="50" width="100" height="40" as="geometry" />
        </mxCell>
        <mxCell id="u1F8hFE0OjzJCRRmCUPQ-12" style="edgeStyle=orthogonalEdgeStyle;rounded=0;orthogonalLoop=1;jettySize=auto;html=1;exitX=0.5;exitY=1;exitDx=0;exitDy=0;" parent="1" source="u1F8hFE0OjzJCRRmCUPQ-2" target="u1F8hFE0OjzJCRRmCUPQ-11" edge="1">
          <mxGeometry relative="1" as="geometry" />
        </mxCell>
        <mxCell id="u1F8hFE0OjzJCRRmCUPQ-2" value="Architettura di rete =&lt;div&gt;&lt;div&gt;Gerarchia di dispositivi organizzati a livelli&lt;/div&gt;&lt;/div&gt;" style="rounded=0;whiteSpace=wrap;html=1;" parent="1" vertex="1">
          <mxGeometry x="270" y="160" width="150" height="80" as="geometry" />
        </mxCell>
        <mxCell id="u1F8hFE0OjzJCRRmCUPQ-8" style="edgeStyle=orthogonalEdgeStyle;rounded=0;orthogonalLoop=1;jettySize=auto;html=1;exitX=0.5;exitY=1;exitDx=0;exitDy=0;" parent="1" source="u1F8hFE0OjzJCRRmCUPQ-3" target="u1F8hFE0OjzJCRRmCUPQ-6" edge="1">
          <mxGeometry relative="1" as="geometry" />
        </mxCell>
        <mxCell id="u1F8hFE0OjzJCRRmCUPQ-3" value="Livelli = Astrazione rispetto a livello fisico (a prescindere dall&#39;hardware)&amp;nbsp;&lt;br&gt;- Regole chiamate protocolli" style="rounded=0;whiteSpace=wrap;html=1;" parent="1" vertex="1">
          <mxGeometry x="530" y="155" width="160" height="90" as="geometry" />
        </mxCell>
        <mxCell id="u1F8hFE0OjzJCRRmCUPQ-4" value="" style="endArrow=classic;html=1;rounded=0;exitX=1;exitY=0.5;exitDx=0;exitDy=0;" parent="1" source="u1F8hFE0OjzJCRRmCUPQ-2" target="u1F8hFE0OjzJCRRmCUPQ-3" edge="1">
          <mxGeometry width="50" height="50" relative="1" as="geometry">
            <mxPoint x="360" y="220" as="sourcePoint" />
            <mxPoint x="410" y="170" as="targetPoint" />
          </mxGeometry>
        </mxCell>
        <mxCell id="u1F8hFE0OjzJCRRmCUPQ-5" value="" style="endArrow=none;html=1;rounded=0;exitX=0.5;exitY=0;exitDx=0;exitDy=0;" parent="1" source="u1F8hFE0OjzJCRRmCUPQ-2" target="u1F8hFE0OjzJCRRmCUPQ-1" edge="1">
          <mxGeometry width="50" height="50" relative="1" as="geometry">
            <mxPoint x="360" y="220" as="sourcePoint" />
            <mxPoint x="410" y="170" as="targetPoint" />
          </mxGeometry>
        </mxCell>
        <mxCell id="u1F8hFE0OjzJCRRmCUPQ-10" style="edgeStyle=orthogonalEdgeStyle;rounded=0;orthogonalLoop=1;jettySize=auto;html=1;exitX=0.5;exitY=1;exitDx=0;exitDy=0;entryX=0.5;entryY=0;entryDx=0;entryDy=0;" parent="1" source="u1F8hFE0OjzJCRRmCUPQ-6" target="u1F8hFE0OjzJCRRmCUPQ-9" edge="1">
          <mxGeometry relative="1" as="geometry" />
        </mxCell>
        <mxCell id="u1F8hFE0OjzJCRRmCUPQ-6" value="Protocolli = insieme di regole stabilite per condivisione di dati tra dispositivi diversi&lt;br&gt;&lt;br&gt;Es. TCP/IP - Ethernet" style="rounded=0;whiteSpace=wrap;html=1;" parent="1" vertex="1">
          <mxGeometry x="530" y="290" width="160" height="90" as="geometry" />
        </mxCell>
        <mxCell id="u1F8hFE0OjzJCRRmCUPQ-9" value="Interfacce = Minimizzazione dati da trasferire&lt;br&gt;SDU - Service Data Unit" style="rounded=0;whiteSpace=wrap;html=1;" parent="1" vertex="1">
          <mxGeometry x="530" y="430" width="160" height="90" as="geometry" />
        </mxCell>
        <mxCell id="u1F8hFE0OjzJCRRmCUPQ-11" value="Livelli o strati = per collegare aspetti diversi&lt;br&gt;&lt;br&gt;Host (ospite) = Dispositivo &quot;ospitato&quot; dentro una rete&lt;br&gt;&lt;br&gt;Networking - Connessione di reti informatiche tra più host con scheda di rete = NIC (Network Interface Card)&lt;div&gt;&lt;br&gt;&lt;/div&gt;" style="rounded=0;whiteSpace=wrap;html=1;" parent="1" vertex="1">
          <mxGeometry x="264.38" y="330" width="161.25" height="170" as="geometry" />
        </mxCell>
      </root>
    </mxGraphModel>
  </diagram>
  <diagram id="O7Tn1jWNWeaArQXuLtEv" name="ISO/OSI">
    <mxGraphModel dx="772" dy="396" grid="1" gridSize="10" guides="1" tooltips="1" connect="1" arrows="1" fold="1" page="1" pageScale="1" pageWidth="827" pageHeight="1169" math="0" shadow="0">
      <root>
        <mxCell id="0" />
        <mxCell id="1" parent="0" />
        <mxCell id="0USRR_lQ1JupnmkUOPBc-4" value="" style="edgeStyle=orthogonalEdgeStyle;rounded=0;orthogonalLoop=1;jettySize=auto;html=1;" edge="1" parent="1" source="0USRR_lQ1JupnmkUOPBc-1" target="0USRR_lQ1JupnmkUOPBc-2">
          <mxGeometry relative="1" as="geometry" />
        </mxCell>
        <mxCell id="0USRR_lQ1JupnmkUOPBc-1" value="ISO/OSI&lt;br&gt;- Specifica cosa fanno i livelli&lt;div&gt;- Idea logica di come funziona realmente&lt;/div&gt;" style="rounded=1;whiteSpace=wrap;html=1;" vertex="1" parent="1">
          <mxGeometry x="315.5" y="100" width="143" height="80" as="geometry" />
        </mxCell>
        <mxCell id="0USRR_lQ1JupnmkUOPBc-2" value="- Fisico /Physical layer): definisce le caratteristiche dei segnali e dei dispositivi (trasformazioni dati) = messaggi di sequenze di bit&lt;br&gt;&lt;br&gt;- Collegamento (Data link layer): struttura dei dati come frame (header - data - end) e individua la presenza di errori, definendo accesso multiplo&lt;br&gt;&lt;br&gt;Rete (Network layer): Interconnessione tra nodi intermedi - instradamento (routing - routes) dei pacchetti. Trova percorsi alternativi per collegare gli host su più host (multiplazione) e la congestione (evitare blocco rete)&lt;br&gt;&lt;br&gt;&lt;div&gt;- Trasporto (Transport layer) - I messaggi sono in sequenza e hanno un ordine trasmessi dagli host e ricostruisce i dati in modo affidabile (accorgendosi di errori che ci sono). Segmenta e assembla i dati e definisce la qualità del servizio&lt;br&gt;&lt;br&gt;- Sessione (Session layer) - Comunicazione sincronizzata in unità logiche (sessioni), introducendo i punti di sincronizzazione&lt;br&gt;&lt;br&gt;Presentazione (Presentation layer) - Converte i dati in una codifica comprensibile a tutti (sintassi/semantica), comprime i dati e li cifra, fornendo servizi al livello superiore&lt;br&gt;&lt;br&gt;Applicativo (Application layer) - Dipende dal protocollo e dall&#39;applicazione&lt;/div&gt;" style="rounded=0;whiteSpace=wrap;html=1;" vertex="1" parent="1">
          <mxGeometry x="159" y="220" width="456" height="360" as="geometry" />
        </mxCell>
      </root>
    </mxGraphModel>
  </diagram>
  <diagram id="FwKFaV_igV4yvNknx723" name="TCP/IP">
    <mxGraphModel dx="651" dy="334" grid="1" gridSize="10" guides="1" tooltips="1" connect="1" arrows="1" fold="1" page="1" pageScale="1" pageWidth="827" pageHeight="1169" math="0" shadow="0">
      <root>
        <mxCell id="0" />
        <mxCell id="1" parent="0" />
        <mxCell id="JngqgZjiCi-eWcBppp7_-3" style="edgeStyle=orthogonalEdgeStyle;rounded=0;orthogonalLoop=1;jettySize=auto;html=1;exitX=0.5;exitY=1;exitDx=0;exitDy=0;" edge="1" parent="1" source="JngqgZjiCi-eWcBppp7_-1" target="JngqgZjiCi-eWcBppp7_-2">
          <mxGeometry relative="1" as="geometry" />
        </mxCell>
        <mxCell id="JngqgZjiCi-eWcBppp7_-1" value="TCP/IP&lt;div&gt;- Suite di protocolli&lt;br&gt;&lt;/div&gt;" style="rounded=1;whiteSpace=wrap;html=1;" vertex="1" parent="1">
          <mxGeometry x="315.5" y="100" width="143" height="80" as="geometry" />
        </mxCell>
        <mxCell id="JngqgZjiCi-eWcBppp7_-2" value="- Host-rete = Data/Collegamento di ISO/OSI&lt;br&gt;&lt;br&gt;- Internet (IP/ARP/UDP) = seleziona il miglior percorso e spezza i dati in pacchetti&lt;br&gt;&lt;br&gt;- Trasporto&lt;br&gt;- TCP = affidabile con connessione (esistono mittente e destinatario&lt;br&gt;con segmenti con numeri e con stream &lt;br&gt;- UDP = datagram (formato di dati definito) - senza connessione (connection-less = non attendiamo di avere un canale)&amp;nbsp;&lt;br&gt;&lt;br&gt;- Applicativo (HTTP/SSH/DNS)&amp;nbsp;" style="rounded=0;whiteSpace=wrap;html=1;" vertex="1" parent="1">
          <mxGeometry x="249.75" y="240" width="274.5" height="250" as="geometry" />
        </mxCell>
      </root>
    </mxGraphModel>
  </diagram>
  <diagram id="uo5Lcv9-NtF_1noBkozJ" name="Modelli di collegamento">
    <mxGraphModel dx="359" dy="184" grid="1" gridSize="10" guides="1" tooltips="1" connect="1" arrows="1" fold="1" page="1" pageScale="1" pageWidth="827" pageHeight="1169" math="0" shadow="0">
      <root>
        <mxCell id="0" />
        <mxCell id="1" parent="0" />
        <mxCell id="2kBYZsTp71fPtdgcszl--7" style="edgeStyle=orthogonalEdgeStyle;rounded=0;orthogonalLoop=1;jettySize=auto;html=1;exitX=1;exitY=0.5;exitDx=0;exitDy=0;" parent="1" source="2kBYZsTp71fPtdgcszl--1" target="2kBYZsTp71fPtdgcszl--6" edge="1">
          <mxGeometry relative="1" as="geometry" />
        </mxCell>
        <mxCell id="2kBYZsTp71fPtdgcszl--8" style="edgeStyle=orthogonalEdgeStyle;rounded=0;orthogonalLoop=1;jettySize=auto;html=1;" parent="1" source="2kBYZsTp71fPtdgcszl--1" target="2kBYZsTp71fPtdgcszl--5" edge="1">
          <mxGeometry relative="1" as="geometry" />
        </mxCell>
        <mxCell id="2kBYZsTp71fPtdgcszl--9" style="edgeStyle=orthogonalEdgeStyle;rounded=0;orthogonalLoop=1;jettySize=auto;html=1;exitX=0;exitY=0.5;exitDx=0;exitDy=0;" parent="1" source="2kBYZsTp71fPtdgcszl--1" target="2kBYZsTp71fPtdgcszl--2" edge="1">
          <mxGeometry relative="1" as="geometry" />
        </mxCell>
        <mxCell id="2kBYZsTp71fPtdgcszl--1" value="Modelli di collegamento" style="rounded=1;whiteSpace=wrap;html=1;" parent="1" vertex="1">
          <mxGeometry x="294" y="150" width="120" height="60" as="geometry" />
        </mxCell>
        <mxCell id="2kBYZsTp71fPtdgcszl--2" value="Peer-to-peer&lt;br&gt;(Connessione tra pari senza server centralizzato - host che comunicano)" style="rounded=0;whiteSpace=wrap;html=1;" parent="1" vertex="1">
          <mxGeometry x="110" y="270" width="120" height="80" as="geometry" />
        </mxCell>
        <mxCell id="2kBYZsTp71fPtdgcszl--5" value="Mainframe&lt;br&gt;(Unico punto di fallimento - Server centralizzato)" style="rounded=0;whiteSpace=wrap;html=1;" parent="1" vertex="1">
          <mxGeometry x="294" y="280" width="120" height="60" as="geometry" />
        </mxCell>
        <mxCell id="2kBYZsTp71fPtdgcszl--6" value="Client/server&lt;br&gt;(Dispositivi finali che richiedono un servizio ad un fornitore)&lt;br&gt;&lt;span style=&quot;color: rgba(0, 0, 0, 0); font-family: monospace; font-size: 0px; text-align: start; text-wrap: nowrap;&quot;&gt;(U nnnnnwiefoiuhwqrliugfoiuwqg%3CmxGraphModel%3E%3Croot%3E%3CmxCell%20id%3D%220%22%2F%3E%3CmxCell%20id%3D%221%22%20parent%3D%220%22%2F%3E%3CmxCell%20id%3D%222%22%20value%3D%22%22%20style%3D%22rounded%3D0%3BwhiteSpace%3Dwrap%3Bhtml%3D1%3B%22%20vertex%3D%221%22%20parent%3D%221%22%3E%3CmxGeometry%20x%3D%22110%22%20y%3D%22260%22%20width%3D%22120%22%20height%3D%2260%22%20as%3D%22geometry%22%2F%3E%3C%2FmxCell%3E%3C%2Froot%3E%3C%2FmxGraphModel%&lt;/span&gt;" style="rounded=0;whiteSpace=wrap;html=1;" parent="1" vertex="1">
          <mxGeometry x="500" y="280" width="150" height="80" as="geometry" />
        </mxCell>
      </root>
    </mxGraphModel>
  </diagram>
</mxfile>
